<svg width="131" height="66" viewBox="0 0 131 66" fill="none" xmlns="http://www.w3.org/2000/svg">
<path d="M129.5 1C108.704 2.73299 107.416 44.2218 86.8333 49C69.8602 52.9402 61.2655 30.5738 44.1667 33C25.6204 35.6316 19.6855 58.9382 1.5 65H129.5V1Z" fill="#ECFDF3"/>
<path d="M129.5 1C108.704 2.73299 107.416 44.2218 86.8333 49C69.8602 52.9402 61.2655 30.5738 44.1667 33C25.6204 35.6316 19.6855 58.9382 1.5 65H129.5V1Z" fill="url(#paint0_linear_40_26328)"/>
<path d="M1.5 65C19.6855 58.9382 25.6204 35.6316 44.1667 33C61.2655 30.5738 69.8602 52.9402 86.8333 49C107.416 44.2218 108.704 2.73299 129.5 1" stroke="#12B76A" stroke-width="2" stroke-linecap="round" stroke-linejoin="round"/>
<defs>
<linearGradient id="paint0_linear_40_26328" x1="65.5" y1="1" x2="65.5" y2="65" gradientUnits="userSpaceOnUse">
<stop offset="0.641167" stop-color="white" stop-opacity="0"/>
<stop offset="1" stop-color="white"/>
</linearGradient>
</defs>
</svg>
